<svg width="452" height="467" viewBox="0 0 452 467" fill="none" xmlns="http://www.w3.org/2000/svg">
<g clip-path="url(#clip0_594_38863)">
<path d="M190.246 259.933C184.597 260.526 174.353 266.627 169.196 268.929C176.545 277.078 185.018 284.294 195.473 287.585C206.18 290.96 217.436 293.474 228.677 293.912C242.434 294.449 261.361 289.718 272.982 282.261C278.279 278.857 290.139 269.691 290.139 269.691C280.57 265.765 267.923 262.093 259.197 256.783C256.134 254.919 250.836 251.219 250.836 251.219C249.038 251.487 245.946 253.224 244.064 253.676C241.9 254.199 239.778 255.964 237.558 256.133C232.71 256.501 226.738 256.783 221.904 256.133C216.761 255.456 211.295 253.874 206.869 251.219C203.117 256.783 196.035 257.08 190.246 259.933Z" fill="#1DCC64"/>
<path d="M228.677 293.926C278.639 293.926 319.142 253.218 319.142 203.003C319.142 152.788 278.639 112.08 228.677 112.08C178.715 112.08 138.212 152.788 138.212 203.003C138.212 253.218 178.715 293.926 228.677 293.926Z" stroke="black" stroke-width="4.72803" stroke-linejoin="round"/>
<path d="M388.065 135.652L393.124 130.582" stroke="black" stroke-width="4.72803" stroke-linejoin="round"/>
<path d="M363.264 160.578L368.308 155.508" stroke="black" stroke-width="4.72803" stroke-linejoin="round"/>
<path d="M388.065 155.508L393.124 160.578" stroke="black" stroke-width="4.72803" stroke-linejoin="round"/>
<path d="M363.264 130.582L368.308 135.652" stroke="black" stroke-width="4.72803" stroke-linejoin="round"/>
<path d="M392.168 145.58H399.306" stroke="black" stroke-width="4.72803" stroke-linejoin="round"/>
<path d="M357.081 145.58H364.219" stroke="black" stroke-width="4.72803" stroke-linejoin="round"/>
<path d="M378.187 159.617V166.792" stroke="black" stroke-width="4.72803" stroke-linejoin="round"/>
<path d="M378.187 124.367V131.542" stroke="black" stroke-width="4.72803" stroke-linejoin="round"/>
<path d="M111.879 108.973C115.224 108.973 117.936 106.248 117.936 102.886C117.936 99.524 115.224 96.7988 111.879 96.7988C108.534 96.7988 105.823 99.524 105.823 102.886C105.823 106.248 108.534 108.973 111.879 108.973Z" stroke="#1DCC64" stroke-width="4.72803" stroke-linecap="round" stroke-linejoin="round"/>
<path d="M281.989 74.3723V65.7715" stroke="#1DCC64" stroke-width="4.72803" stroke-linejoin="round"/>
<path d="M281.989 97.7024V89.1016" stroke="#1DCC64" stroke-width="4.72803" stroke-linejoin="round"/>
<path d="M289.31 81.7305H297.868" stroke="#1DCC64" stroke-width="4.72803" stroke-linejoin="round"/>
<path d="M266.097 81.7305H274.654" stroke="#1DCC64" stroke-width="4.72803" stroke-linejoin="round"/>
<path d="M330.2 282.317V276.682" stroke="#1DCC64" stroke-width="4.72803" stroke-linejoin="round"/>
<path d="M330.2 301.227V295.592" stroke="#1DCC64" stroke-width="4.72803" stroke-linejoin="round"/>
<path d="M336.818 288.955H342.425" stroke="#1DCC64" stroke-width="4.72803" stroke-linejoin="round"/>
<path d="M317.989 288.955H323.596" stroke="#1DCC64" stroke-width="4.72803" stroke-linejoin="round"/>
<path d="M95.7056 148.771V141.441" stroke="black" stroke-width="4.72803" stroke-linejoin="round"/>
<path d="M95.7056 173.373V166.043" stroke="black" stroke-width="4.72803" stroke-linejoin="round"/>
<path d="M104.291 157.4H111.584" stroke="black" stroke-width="4.72803" stroke-linejoin="round"/>
<path d="M79.813 157.4H87.1058" stroke="black" stroke-width="4.72803" stroke-linejoin="round"/>
<path d="M104.292 266.287V291.652" stroke="black" stroke-width="4.72803" stroke-linejoin="round"/>
<path d="M91.6733 278.969H116.91" stroke="black" stroke-width="4.72803" stroke-linejoin="round"/>
<path d="M443.344 181.537V198.936" stroke="#1DCC64" stroke-width="4.72803" stroke-linejoin="round"/>
<path d="M434.688 190.236H452" stroke="#1DCC64" stroke-width="4.72803" stroke-linejoin="round"/>
<path d="M380.575 271.612C385.301 271.612 389.133 267.761 389.133 263.011C389.133 258.261 385.301 254.41 380.575 254.41C375.849 254.41 372.018 258.261 372.018 263.011C372.018 267.761 375.849 271.612 380.575 271.612Z" stroke="black" stroke-width="4.72803" stroke-linejoin="round"/>
<path d="M27.4009 184.191V175.816" stroke="#1DCC64" stroke-width="4.72803" stroke-linejoin="round"/>
<path d="M27.4009 230.896V222.521" stroke="#1DCC64" stroke-width="4.72803" stroke-linejoin="round"/>
<path d="M8.33264 203.355H0" stroke="#1DCC64" stroke-width="4.72803" stroke-linejoin="round"/>
<path d="M54.8016 203.355H46.469" stroke="#1DCC64" stroke-width="4.72803" stroke-linejoin="round"/>
<path d="M13.9111 189.798L8.02344 183.881" stroke="#1DCC64" stroke-width="4.72803" stroke-linejoin="round"/>
<path d="M46.7783 222.832L40.8906 216.9" stroke="#1DCC64" stroke-width="4.72803" stroke-linejoin="round"/>
<path d="M13.9111 216.9L8.02344 222.832" stroke="#1DCC64" stroke-width="4.72803" stroke-linejoin="round"/>
<path d="M46.7783 183.881L40.8906 189.798" stroke="#1DCC64" stroke-width="4.72803" stroke-linejoin="round"/>
<path d="M253.689 253.563C249.867 250.95 248.504 246.134 248.504 241.629V220.162H208.864V241.629C208.864 246.134 207.698 251.275 203.679 253.563C197.412 257.122 176.77 265.073 167.229 269.691C183.36 284.718 204.957 293.912 228.691 293.912C252.424 293.912 274.007 284.718 290.139 269.691C281.23 265.454 259.717 257.658 253.689 253.549V253.563Z" stroke="black" stroke-width="4.72803" stroke-linecap="round" stroke-linejoin="round"/>
<path d="M207.67 251.232C212.911 254.226 219.642 256.147 228.621 256.147H228.733C237.712 256.147 244.443 254.226 249.684 251.232" fill="white"/>
<path d="M207.67 251.232C212.911 254.226 219.642 256.147 228.621 256.147H228.733C237.712 256.147 244.443 254.226 249.684 251.232" stroke="black" stroke-width="4.72803" stroke-linecap="round" stroke-linejoin="round"/>
<path d="M193.224 175.449C193.056 179.728 193.084 183.697 193.267 187.383C190.878 187.651 188.025 189.501 187.815 193.526C187.548 198.625 190.077 203.723 193.421 206.138C194.25 206.745 195.121 207.113 195.979 207.31C197.032 211.717 198.255 214.188 199.449 217.338C203.173 227.153 212.475 238.366 228.592 238.366C244.71 238.366 254.012 227.153 257.736 217.338C258.93 214.188 260.152 211.717 261.206 207.31C262.064 207.113 262.935 206.745 263.764 206.138C267.094 203.723 269.637 198.625 269.37 193.526C269.16 189.501 266.307 187.651 263.918 187.383C264.087 183.697 264.115 180.999 263.96 176.72" fill="white"/>
<path d="M193.224 175.449C193.056 179.728 193.084 183.697 193.267 187.383C190.878 187.651 188.025 189.501 187.815 193.526C187.548 198.625 190.077 203.723 193.421 206.138C194.25 206.745 195.121 207.113 195.979 207.31C197.032 211.717 198.255 214.188 199.449 217.338C203.173 227.153 212.475 238.366 228.592 238.366C244.71 238.366 254.012 227.153 257.736 217.338C258.93 214.188 260.152 211.717 261.206 207.31C262.064 207.113 262.935 206.745 263.764 206.138C267.094 203.723 269.637 198.625 269.37 193.526C269.16 189.501 266.307 187.651 263.918 187.383C264.087 183.697 264.115 180.999 263.96 176.72" stroke="black" stroke-width="4.72803" stroke-linecap="round" stroke-linejoin="round"/>
<path d="M236.911 217.549C235.801 218.156 232.204 219.455 228.831 219.455C225.459 219.455 221.876 218.17 220.752 217.549" stroke="black" stroke-width="4.72803" stroke-miterlimit="10" stroke-linecap="round"/>
<path d="M214.569 195.334C216.416 195.334 217.913 193.829 217.913 191.973C217.913 190.116 216.416 188.611 214.569 188.611C212.722 188.611 211.225 190.116 211.225 191.973C211.225 193.829 212.722 195.334 214.569 195.334Z" fill="black"/>
<path d="M242.784 195.334C244.631 195.334 246.129 193.829 246.129 191.973C246.129 190.116 244.631 188.611 242.784 188.611C240.937 188.611 239.44 190.116 239.44 191.973C239.44 193.829 240.937 195.334 242.784 195.334Z" fill="black"/>
<path d="M228.564 202.086V203.908" stroke="black" stroke-width="4.72803" stroke-miterlimit="10" stroke-linecap="round"/>
<path d="M232.485 179.629C228.874 176.932 226.148 171.876 224.743 167.596C231.993 171.212 239.174 173.373 246.34 176.889C251.637 179.502 257.638 183.174 260.743 189.332C263.891 187.383 267.403 179.092 265.703 168.712C264.748 162.865 255.263 142.331 237.74 137.148C230.813 135.1 227.3 135.82 222.382 139.125C216.86 137.218 213.248 138.969 209.82 140.749C203.412 144.068 192.986 156.962 190.246 168.401C188.054 177.553 190.077 185.744 196.457 189.332C198.354 183.612 202.569 177.144 208.892 170.252C215.637 177.257 225.965 180.067 232.485 179.643V179.629Z" fill="black" stroke="black" stroke-width="4.72803" stroke-linejoin="round"/>
</g>
<g clip-path="url(#clip1_594_38863)">
<path d="M264.932 25C265.522 25 266 24.5503 266 23.9944V20.258C266 19.7057 265.518 19.2524 264.932 19.2524H254.249V15.3738H264.932C265.522 15.3738 266 14.9241 266 14.3682V10.6318C266 10.0795 265.518 9.62618 264.932 9.62618H254.249V5.74764H264.932C265.522 5.74764 266 5.29791 266 4.74203V1.00561C266 0.453335 265.518 0 264.932 0H249.214C248.623 0 248.146 0.449737 248.146 1.00561V1.0272V23.9764V23.9944C248.146 24.5503 248.623 25 249.214 25H264.932Z" fill="#06C755"/>
<path d="M206.786 25C207.377 25 207.854 24.5503 207.854 23.9944V20.258C207.854 19.7057 207.373 19.2524 206.786 19.2524H196.105V1.00561C196.105 0.453335 195.623 0 195.037 0H191.068C190.478 0 190 0.449737 190 1.00561V23.9764V23.9944C190 24.5503 190.478 25 191.068 25H206.786Z" fill="#06C755"/>
<path d="M216.25 0H212.282C211.692 0 211.214 0.450228 211.214 1.00561V23.9944C211.214 24.5498 211.692 25 212.282 25H216.25C216.84 25 217.319 24.5498 217.319 23.9944V1.00561C217.319 0.450228 216.84 0 216.25 0Z" fill="#06C755"/>
<path d="M243.262 0H239.293C238.704 0 238.227 0.449737 238.227 1.00561V14.6596L227.054 0.455134C227.027 0.419155 226.999 0.384975 226.968 0.350795C226.966 0.348996 226.964 0.345398 226.961 0.343599C226.94 0.322012 226.919 0.300425 226.896 0.280636C226.888 0.275239 226.882 0.269842 226.875 0.262647C226.855 0.246456 226.836 0.232064 226.817 0.215874C226.808 0.208678 226.798 0.201482 226.789 0.196085C226.769 0.183493 226.752 0.1709 226.731 0.160106C226.72 0.152911 226.71 0.147514 226.699 0.142117C226.68 0.131323 226.661 0.12053 226.64 0.111535C226.628 0.106138 226.617 0.100741 226.605 0.0953443C226.584 0.0863496 226.563 0.0773548 226.542 0.070159C226.531 0.0665611 226.519 0.0611643 226.508 0.0575664C226.487 0.0503706 226.466 0.0431748 226.443 0.0377779C226.429 0.03418 226.418 0.0323811 226.404 0.0287832C226.383 0.0233863 226.362 0.0197884 226.341 0.0161905C226.326 0.0143916 226.311 0.0107937 226.296 0.00899475C226.276 0.0071958 226.257 0.0035979 226.238 0.00179895C226.219 0.00179895 226.2 0 226.181 0C226.173 0 226.16 0 226.148 0H222.203C221.612 0 221.135 0.449737 221.135 1.00561V23.9944C221.135 24.5503 221.612 25 222.203 25H226.171C226.762 25 227.24 24.5503 227.24 23.9944V10.344L238.425 24.5665C238.502 24.669 238.597 24.7535 238.7 24.8201C238.704 24.8219 238.708 24.8255 238.714 24.8273C238.735 24.8417 238.758 24.8543 238.781 24.8651C238.79 24.8705 238.802 24.8759 238.811 24.8813C238.828 24.8903 238.846 24.8975 238.863 24.9047C238.88 24.9119 238.897 24.919 238.914 24.9262C238.926 24.9298 238.937 24.9334 238.949 24.9388C238.974 24.9478 238.997 24.955 239.023 24.9604C239.029 24.9604 239.033 24.9622 239.039 24.964C239.128 24.9856 239.222 25 239.318 25H243.263C243.854 25 244.332 24.5503 244.332 23.9944V1.00561C244.332 0.449737 243.852 0 243.262 0Z" fill="#06C755"/>
</g>
<rect x="43" y="354" width="366" height="73.2" rx="5" fill="#06C755"/>
<path d="M187.976 399.6C187.72 399.6 187.592 399.472 187.592 399.216V382.368C187.592 382.112 187.72 381.984 187.976 381.984H191.696C191.952 381.984 192.08 382.112 192.08 382.368V395.352H199.808C200.048 395.352 200.168 395.472 200.168 395.712V399.216C200.168 399.472 200.048 399.6 199.808 399.6H187.976ZM210 399.936C208.688 399.936 207.48 399.72 206.376 399.288C205.272 398.84 204.312 398.216 203.496 397.416C202.68 396.6 202.04 395.632 201.576 394.512C201.128 393.392 200.904 392.152 200.904 390.792C200.904 389.432 201.128 388.192 201.576 387.072C202.04 385.952 202.68 384.992 203.496 384.192C204.312 383.376 205.272 382.752 206.376 382.32C207.48 381.872 208.688 381.648 210 381.648C211.312 381.648 212.52 381.872 213.624 382.32C214.728 382.752 215.688 383.376 216.504 384.192C217.32 384.992 217.952 385.952 218.4 387.072C218.864 388.192 219.096 389.432 219.096 390.792C219.096 392.152 218.864 393.392 218.4 394.512C217.952 395.632 217.32 396.6 216.504 397.416C215.688 398.216 214.728 398.84 213.624 399.288C212.52 399.72 211.312 399.936 210 399.936ZM210 395.592C210.896 395.592 211.672 395.392 212.328 394.992C213 394.576 213.52 394.008 213.888 393.288C214.272 392.568 214.464 391.736 214.464 390.792C214.464 389.848 214.272 389.016 213.888 388.296C213.52 387.576 213 387.016 212.328 386.616C211.672 386.2 210.896 385.992 210 385.992C209.12 385.992 208.344 386.2 207.672 386.616C207 387.016 206.472 387.576 206.088 388.296C205.72 389.016 205.536 389.848 205.536 390.792C205.536 391.736 205.72 392.568 206.088 393.288C206.472 394.008 207 394.576 207.672 394.992C208.344 395.392 209.12 395.592 210 395.592ZM230.233 399.936C228.457 399.936 226.897 399.552 225.553 398.784C224.225 398.016 223.185 396.952 222.433 395.592C221.697 394.216 221.329 392.616 221.329 390.792C221.329 389.432 221.553 388.192 222.001 387.072C222.449 385.952 223.073 384.992 223.873 384.192C224.689 383.376 225.641 382.752 226.729 382.32C227.833 381.872 229.025 381.648 230.305 381.648C232.225 381.648 233.857 382.064 235.201 382.896C236.561 383.728 237.537 384.912 238.129 386.448C238.241 386.72 238.161 386.88 237.889 386.928L234.217 387.936C234.009 387.984 233.849 387.912 233.737 387.72C233.385 387.16 232.913 386.728 232.321 386.424C231.729 386.12 231.081 385.968 230.377 385.968C229.033 385.968 227.961 386.4 227.161 387.264C226.361 388.112 225.961 389.296 225.961 390.816C225.961 392.336 226.369 393.52 227.185 394.368C228.001 395.216 229.065 395.64 230.377 395.64C231.401 395.64 232.257 395.416 232.945 394.968C233.633 394.52 234.041 393.864 234.169 393H230.785C230.529 393 230.401 392.872 230.401 392.616V390.048C230.401 389.792 230.529 389.664 230.785 389.664H238.297C238.553 389.664 238.681 389.792 238.681 390.048V392.112C238.681 393.584 238.353 394.912 237.697 396.096C237.057 397.28 236.105 398.216 234.841 398.904C233.593 399.592 232.057 399.936 230.233 399.936ZM241.775 399.6C241.519 399.6 241.391 399.472 241.391 399.216V382.368C241.391 382.112 241.519 381.984 241.775 381.984H245.495C245.751 381.984 245.879 382.112 245.879 382.368V399.216C245.879 399.472 245.751 399.6 245.495 399.6H241.775ZM249.473 399.6C249.217 399.6 249.089 399.472 249.089 399.216V382.368C249.089 382.112 249.217 381.984 249.473 381.984H253.361C253.537 381.984 253.689 382.072 253.817 382.248L260.105 392.712V382.368C260.105 382.112 260.233 381.984 260.489 381.984H264.017C264.273 381.984 264.401 382.112 264.401 382.368V399.216C264.401 399.472 264.273 399.6 264.017 399.6H260.153C259.945 399.6 259.793 399.512 259.697 399.336L253.385 388.824V399.216C253.385 399.472 253.257 399.6 253.001 399.6H249.473Z" fill="white"/>
<path d="M325.968 458.434C325.546 457.629 325.1 457.006 324.592 456.467L328.888 463.994C328.888 463.994 326.799 460.022 325.968 458.434Z" fill="white"/>
<path d="M360.599 447.343C360.599 447.343 358.509 443.371 357.679 441.783C356.839 440.188 356.632 438.897 356.63 437.37C356.824 430.082 356.271 425.666 354.527 420.476C353.032 416.031 350.068 408.825 346.418 402.846C344.813 400.225 342.386 398.766 339.755 398.51C336.684 398.213 334.174 399.627 334.174 399.627C334.174 399.627 332.035 397.833 328.552 398.001C325.023 398.179 322.707 400.678 322.707 400.678C322.707 400.678 319.987 399.266 316.456 400.252C312.7 401.303 310.963 404.445 310.963 404.445L294.049 378.038C292.295 375.138 288.935 374.207 286.38 375.711C284.286 376.939 283.216 380.025 284.668 382.935L299.411 412.401C299.411 412.401 298.575 414.309 297.503 417.42C296.575 420.124 296.478 422.193 297.29 424.881C297.905 426.915 299.024 430.465 300.762 435.369C302.717 440.906 305.351 444.288 309.299 446.755C314.476 449.989 322.88 455.093 322.88 455.093C323.538 455.511 328.391 463.469 328.898 464L360.606 447.341L360.599 447.343Z" fill="white"/>
<path d="M328.888 463.994L325.968 458.434C325.128 456.839 324.188 455.931 322.872 455.095C322.872 455.095 314.466 449.983 309.291 446.757C305.343 444.29 302.717 440.906 300.754 435.371C299.024 430.465 297.898 426.917 297.283 424.882C296.47 422.194 296.568 420.126 297.496 417.422C298.578 414.285 299.404 412.403 299.404 412.403M360.599 447.343L357.679 441.783C356.839 440.188 356.632 438.897 356.63 437.37C356.824 430.082 356.271 425.666 354.527 420.476C353.032 416.031 350.068 408.825 346.418 402.846C344.813 400.225 342.386 398.766 339.755 398.51C336.684 398.213 334.174 399.627 334.174 399.627C334.174 399.627 332.035 397.833 328.552 398.001C325.069 398.169 322.707 400.678 322.707 400.678C322.707 400.678 319.987 399.266 316.456 400.252C312.7 401.303 310.963 404.445 310.963 404.445L294.049 378.038C292.295 375.138 288.935 374.207 286.38 375.711C284.286 376.939 283.216 380.025 284.668 382.935L307.012 427.605" stroke="black" stroke-width="4.05818" stroke-linecap="round" stroke-linejoin="round"/>
<defs>
<clipPath id="clip0_594_38863">
<rect width="452" height="235.456" fill="white" transform="translate(0 65.7715)"/>
</clipPath>
<clipPath id="clip1_594_38863">
<rect width="76" height="25" fill="white" transform="translate(190)"/>
</clipPath>
</defs>
</svg>
